<svg width="86" height="33" viewBox="0 0 86 33" fill="none" xmlns="http://www.w3.org/2000/svg">
<path d="M0.25 31.325L2.95 30.65V1.85L0.25 1.175V0.499998H13.075V1.175L10.375 1.85V30.875H20.05C20.05 28.985 20.53 27.23 21.49 25.61C21.91 24.92 22.405 24.35 22.975 23.9H24.325V32H0.25V31.325ZM30.8658 32.45C29.9658 32.45 29.1708 32.12 28.4808 31.46C27.8208 30.77 27.4908 29.975 27.4908 29.075C27.4908 28.175 27.8208 27.395 28.4808 26.735C29.1708 26.045 29.9658 25.7 30.8658 25.7C31.7658 25.7 32.5458 26.045 33.2058 26.735C33.8958 27.395 34.2408 28.175 34.2408 29.075C34.2408 29.975 33.8958 30.77 33.2058 31.46C32.5458 32.12 31.7658 32.45 30.8658 32.45ZM37.8514 1.625L35.3764 1.175V0.499998H40.7764C42.3664 0.499998 43.6714 0.859998 44.6914 1.58C45.7114 2.3 46.4314 3.215 46.8514 4.325L53.6464 21.65L57.6064 10.04L54.2764 1.625L51.8014 1.175V0.499998H57.2014C58.7914 0.499998 60.0814 0.859998 61.0714 1.58C62.0614 2.27 62.7964 3.185 63.2764 4.325L70.0714 21.65L76.5514 2.525L73.1764 1.175V0.499998H81.5014V1.175L77.9014 2.525L67.7764 32.45H66.4264L58.3264 11.885L51.3514 32.45H50.0014L37.8514 1.625ZM82.4137 32.45C81.5137 32.45 80.7187 32.12 80.0287 31.46C79.3687 30.77 79.0387 29.975 79.0387 29.075C79.0387 28.175 79.3687 27.395 80.0287 26.735C80.7187 26.045 81.5137 25.7 82.4137 25.7C83.3137 25.7 84.0937 26.045 84.7537 26.735C85.4437 27.395 85.7887 28.175 85.7887 29.075C85.7887 29.975 85.4437 30.77 84.7537 31.46C84.0937 32.12 83.3137 32.45 82.4137 32.45Z" fill="white"/>
</svg>
